# xmcd
#
# Track frame offsets:
#	150
#	16153
#	33019
#	48755
#	70426
#	86824
#	110078
#	127441
#	147863
#	169227
#	189159
#
# Disc length: 2745 seconds
#
# Revision: 0
# Processed by: cddbd v1.5.2PL0 Copyright (c) Steve Scherf et al.
# Submitted via: EasyCDDAExtractor 2010.4.0.0
#
DISCID=970ab70b
DTITLE=Mohsen Yegane - Rage Khab
DYEAR=1389
DGENRE=Pop
TTITLE0=Sokut
TTITLE1=Do Rahi
TTITLE2=Adamha
TTITLE3=Rage Khab
TTITLE4=Man Toro Kam Daram
TTITLE5=Zarabane Ma'kus
TTITLE6=Nabashi
TTITLE7=Azab
TTITLE8=Bemun
TTITLE9=Hafezeye Za'if
TTITLE10=Do Rahi (Instrumental)
EXTD=
EXTT0=
EXTT1=
EXTT2=
EXTT3=
EXTT4=
EXTT5=
EXTT6=
EXTT7=
EXTT8=
EXTT9=
EXTT10=
PLAYORDER=
